Patient4_TMGait_0pt4_02_right_20_EMG.mot
version=1
nRows=16
nColumns=33
inDegrees=no
endheader
time	1LAddLong	2LGlutMax	3LGlutMed	4LIliopsoas	5LSemiMemb	6LBicFemLong	7LRecFem	8LVastMed	9LVastLat	10LGasMed	11LTibAnt	12lTibPost	13LPeroneusLong	14LSol	15LExtDigLong	16LFlexDigLong	17RAddLong	18RGlutMax	19RGlutMed	20RIliopsoas	21RSemiMemb	22RBicFemLong	23RRecFem	24RVastMed	25RVastLat	26RGasMed	27RTibAnt	28RTibPost	29RPeroneusLong	30RSol	31RExtDigLong	32RFlexDigLong
27.558	0.002289	-0.15305	-0.053406	0.004425	0.020905	-0.035095	0.010223	-0.001678	0.21637	0.000305	-0.12894	0.014496	0.06134	-0.016785	0.04715	-0.003662	0.040131	0.011444	0.29434	0.15518	-0.072479	0.046234	-0.024414	-0.067444	0.00946	-0.002441	0.01297	-0.008087	0.39902	0.030823	-0.001831	-0.00061
27.559	0.013275	-0.13702	0.032349	-0.00061	0.022125	-0.024261	-0.075531	0.004578	0.25192	-0.009613	-0.31662	0.010376	0.112	0.013275	0.053864	0.001221	0.033722	0.028534	0.41809	0.03479	-0.057526	0.054626	-0.027924	-0.033875	0.005493	-0.009003	0.066223	-0.007019	0.13825	0.032349	0.000763	-0.004578
27.56	0.011444	-0.14969	0.033722	0.01236	0.026245	-0.018158	-0.18524	0.009155	0.13947	0.043182	0.08667	0.005341	-0.031128	0.003357	0.04303	0.000458	-0.009155	-0.002899	0.36118	-0.001678	-0.036316	0.10696	-0.036011	-0.049744	0.020447	-0.010986	0.09079	-0.012207	-0.22186	-0.035858	-0.001526	0.001678
27.561	0.00412	-0.19821	0.018158	0.002136	0.023041	-0.006866	-0.065002	-0.013885	-0.1915	0.010529	0.3598	0.014496	-0.003204	0.05188	0.22964	0.014343	-0.054016	-0.026398	0.004425	-0.017242	0.041504	0.17548	-0.059052	-0.055389	0.031433	-0.005951	-0.069122	-0.004578	-0.33752	-0.039978	-0.001221	0.00885
27.562	0.016937	-0.17532	-0.017548	0.002136	0.02121	-0.002136	0.013123	-0.030212	-0.32501	-0.038147	0.22308	0.007172	0.062866	0.13443	-0.06546	0.012054	-0.049744	0.013885	-0.42618	-0.016785	0.027771	0.12528	-0.066376	-0.048065	0.025024	-0.011597	-0.11627	-0.005646	-0.074005	-0.027008	-0.000763	0.009613
27.563	0.005646	-0.16144	-0.048065	0.010529	0.019989	-0.00061	0.017853	-0.03067	-0.1413	-0.001068	0.15243	0.00824	-0.014648	0.11627	0.8818	0.012665	-0.027771	0.00824	0.012207	-0.035553	-0.067139	0.10757	-0.032654	-0.016479	0.025177	-0.005493	-0.084534	-0.001373	-0.336	-0.039673	-0.001221	0.016632
27.564	0.00885	-0.16586	0.062714	0.002899	0.03067	-0.024414	0.066833	-0.021515	-0.080261	0.032959	-0.1767	0.007935	-0.010223	0.044403	-0.21744	-0.009766	-0.024414	0.018921	0.70206	-0.042114	-0.058899	0.14526	-0.075378	-0.002441	0.028992	-0.001221	-0.066833	-0.003815	-0.18478	-0.041504	0.001984	0.015717
27.565	0.005798	-0.16495	-0.016174	-0.002441	-0.004578	-0.01709	0.11505	-0.007019	0.033112	0.011597	-0.25711	0.009613	0.007477	0.13504	0.12665	-0.002747	-0.00885	-0.011749	0.22781	-0.05127	-0.08194	0.14587	-0.054779	-0.066223	0.006256	-0.010681	-0.079956	-0.001984	0.29816	0.005035	-0.00061	0.020905
27.566	0.008087	-0.15335	0.10727	0.000916	0.017853	-0.019226	0.048218	-0.007172	0.13504	0.016479	-0.11139	0.001373	-0.014038	0.10696	-0.46707	-0.006714	-0.00946	-0.063782	0.043335	-0.077972	-0.103	0.15381	-0.074768	-0.053101	0.019226	-0.002136	-0.037384	-0.006256	0.22125	0.054932	0.002289	0.016785
27.567	0.005493	-0.12589	0.065765	0.003357	0.023041	-0.035095	0.058441	-0.001068	0.20096	0.026703	-0.19318	0.001068	-0.02533	-0.00061	0.088501	-0.00473	-0.029449	-0.055847	0.045471	-0.09079	-0.14038	0.14969	-0.04837	-0.037537	0.015717	-0.010834	-0.0383	-0.003967	-0.077362	0.088043	-0.003052	0.018311
27.568	0.007935	-0.1564	0.026398	0.02182	0.013123	-0.012054	0.037537	-0.00946	0.14038	0.007172	-0.044708	0.006409	-0.059204	-0.008392	-0.41321	-0.002747	-0.016479	-0.055542	-0.11276	-0.089569	-0.011292	0.15686	-0.081024	-0.038605	0.021667	-0.010071	-0.03952	-0.005798	-0.076752	0.049744	-0.005646	0.019073
27.569	0.006714	-0.13214	0.031738	0.010223	0.024872	-0.001373	0.072632	-0.005493	-0.15442	-0.014191	0.15915	0.011292	-0.028076	-0.00351	-0.36804	-0.002289	-0.013428	-0.11597	-0.27191	-0.052643	0.067139	0.15625	-0.044861	0.005341	0.01358	-0.008087	-0.018921	-0.006409	-0.031738	0.022583	-0.000916	0.020752
27.57	0.00885	-0.13809	0.059662	0.002441	0.016632	-0.002441	0.053864	0.001984	-0.31708	-0.038452	-0.0383	-0.006409	0.011292	0.044098	-0.41779	-0.002441	-0.008392	-0.055237	-0.13977	-0.006561	-0.007629	0.14191	-0.063782	-0.084686	0.019684	-0.013885	-0.013428	-0.003815	0.050049	-0.006104	0.002289	0.015411
27.571	0.002441	-0.11139	0.021362	0.010376	0.012512	-0.009766	0.10193	-0.00824	-0.27802	-0.069122	-0.19867	0.003815	0.11368	0.012207	-0.35111	-0.005188	0.000458	-0.086212	0.065002	0.10269	-0.040131	0.10696	-0.020905	-0.054474	0.028229	-0.007935	0.00351	-0.008087	0.063324	0.01358	0.005188	0.009155
27.572	0	-0.094147	0.036621	0.020142	0.013428	-0.01709	0.071411	-0.011902	-0.11459	-0.029755	-0.002594	0.01236	0.009918	-0.036469	-0.24612	-0.002747	0.002899	-0.093842	0.047913	0.095978	-0.050507	0.13825	-0.050201	-0.053558	0.023193	-0.007019	-0.00351	-0.008392	-0.048828	0.016174	0.000763	0.013275
27.573	0.001678	-0.088043	0.19043	0.003052	0.020599	0.009766	0.009308	-0.004272	-0.092468	0.024719	0.14923	0.004272	-0.027924	-0.065918	-0.26215	-0.003815	0.004578	-0.059509	0.075226	0.17609	-0.039368	0.13367	-0.054169	-0.03952	0.009766	-0.01236	0.00061	0.000916	-0.13397	0.00885	0.004425	0.015259
